<?xml version="1.0" encoding="UTF-8"?>
<svg xmlns="http://www.w3.org/2000/svg" xmlns:xlink="http://www.w3.org/1999/xlink" width="50pt" height="50pt" viewBox="0 0 50 50" version="1.1">
<g id="surface24898991">
<path style=" stroke:none;fill-rule:nonzero;fill:rgb(58.431373%,64.705882%,65.098039%);fill-opacity:1;" d="M 8.886719 7.8125 C 8.886719 7.8125 7.8125 9.699219 7.8125 12.890625 C 7.8125 15.007812 8.292969 16.125 8.644531 16.699219 C 6.199219 19.238281 4.6875 22.679688 4.6875 27.097656 C 4.6875 38.414062 11.859375 42.1875 25 42.1875 C 38.140625 42.1875 45.3125 38.414062 45.3125 27.097656 C 45.3125 22.527344 43.882812 19.089844 41.554688 16.601562 C 42.132812 14.867188 42.785156 11.597656 41.164062 7.8125 C 36.316406 7.8125 32.277344 11.535156 32.128906 11.667969 C 29.863281 11.175781 27.460938 10.9375 25 10.9375 C 22.492188 10.9375 20.03125 11.242188 17.726562 11.816406 C 14.476562 8.601562 10.558594 7.8125 8.886719 7.8125 Z M 32.324219 24.121094 C 33.644531 24.109375 34.863281 24.21875 35.9375 24.558594 C 38.800781 25.46875 40.625 28.101562 40.625 31.054688 C 40.625 39.234375 36.238281 40.625 25 40.625 C 16.648438 40.625 9.863281 39.152344 9.863281 31.347656 C 9.863281 28.371094 11.480469 26.683594 12.648438 25.636719 C 15.210938 23.328125 19.257812 24.464844 25 24.464844 C 27.613281 24.464844 30.121094 24.144531 32.324219 24.121094 Z M 16.40625 28.125 C 15.113281 28.125 14.0625 29.523438 14.0625 31.25 C 14.0625 32.976562 15.113281 34.375 16.40625 34.375 C 17.699219 34.375 18.75 32.976562 18.75 31.25 C 18.75 29.523438 17.699219 28.125 16.40625 28.125 Z M 33.59375 28.125 C 32.300781 28.125 31.25 29.523438 31.25 31.25 C 31.25 32.976562 32.300781 34.375 33.59375 34.375 C 34.886719 34.375 35.9375 32.976562 35.9375 31.25 C 35.9375 29.523438 34.886719 28.125 33.59375 28.125 Z M 16.164062 29.445312 C 16.527344 29.445312 16.796875 29.753906 16.796875 30.128906 C 16.796875 30.5 16.527344 30.808594 16.164062 30.808594 C 15.796875 30.808594 15.480469 30.5 15.480469 30.128906 C 15.480469 29.753906 15.796875 29.445312 16.164062 29.445312 Z M 33.351562 29.445312 C 33.714844 29.445312 33.984375 29.753906 33.984375 30.128906 C 33.984375 30.5 33.714844 30.808594 33.351562 30.808594 C 32.984375 30.808594 32.667969 30.5 32.667969 30.128906 C 32.667969 29.753906 32.984375 29.445312 33.351562 29.445312 Z M 33.351562 29.445312 "/>
</g>
</svg>
