<?xml version="1.0" encoding="UTF-8"?>
<svg xmlns="http://www.w3.org/2000/svg" xmlns:xlink="http://www.w3.org/1999/xlink" width="50pt" height="50pt" viewBox="0 0 50 50" version="1.1">
<g id="surface25555838">
<path style=" stroke:none;fill-rule:evenodd;fill:rgb(58.431373%,64.705882%,65.098039%);fill-opacity:1;" d="M 25.042969 4.199219 C 36.527344 4.199219 45.832031 13.507812 45.832031 24.988281 C 45.832031 36.472656 36.527344 45.777344 25.042969 45.777344 C 13.5625 45.777344 4.253906 36.472656 4.253906 24.988281 C 4.253906 13.507812 13.5625 4.199219 25.042969 4.199219 Z M 25.042969 4.199219 "/>
<path style=" stroke:none;fill-rule:nonzero;fill:rgb(100%,100%,100%);fill-opacity:1;" d="M 38.085938 13.097656 C 37.144531 9.40625 31.019531 8.191406 25.226562 10.25 C 21.777344 11.476562 18.046875 13.398438 15.363281 15.910156 C 12.167969 18.894531 11.660156 21.492188 11.871094 22.578125 C 12.609375 26.40625 17.859375 28.910156 20.015625 30.769531 L 20.015625 30.78125 C 19.378906 31.09375 14.722656 33.449219 13.632812 35.859375 C 12.484375 38.402344 13.816406 40.226562 14.699219 40.472656 C 17.433594 41.230469 20.238281 39.863281 21.746094 37.617188 C 23.203125 35.445312 23.082031 32.644531 22.449219 31.246094 C 23.320312 31.019531 24.339844 30.914062 25.632812 31.066406 C 29.277344 31.492188 29.992188 33.769531 29.855469 34.722656 C 29.71875 35.675781 28.953125 36.199219 28.699219 36.355469 C 28.441406 36.515625 28.367188 36.570312 28.386719 36.6875 C 28.417969 36.859375 28.535156 36.851562 28.753906 36.816406 C 29.054688 36.765625 30.667969 36.039062 30.738281 34.28125 C 30.824219 32.046875 28.6875 29.550781 24.898438 29.613281 C 23.335938 29.640625 22.355469 29.789062 21.644531 30.054688 C 21.59375 29.996094 21.539062 29.933594 21.484375 29.875 C 19.144531 27.375 14.8125 25.609375 14.996094 22.246094 C 15.0625 21.027344 15.488281 17.808594 23.316406 13.90625 C 29.730469 10.710938 34.867188 11.589844 35.753906 13.539062 C 37.023438 16.324219 33.007812 21.5 26.347656 22.246094 C 23.808594 22.53125 22.472656 21.550781 22.140625 21.183594 C 21.789062 20.796875 21.738281 20.777344 21.609375 20.851562 C 21.394531 20.96875 21.53125 21.308594 21.609375 21.511719 C 21.808594 22.03125 22.625 22.949219 24.015625 23.40625 C 25.238281 23.808594 28.21875 24.027344 31.824219 22.632812 C 35.859375 21.070312 39.011719 16.726562 38.085938 13.097656 Z M 20.914062 31.914062 C 21.214844 33.035156 21.179688 34.078125 20.871094 35.023438 C 20.835938 35.128906 20.796875 35.230469 20.753906 35.332031 C 20.714844 35.433594 20.667969 35.539062 20.621094 35.636719 C 20.378906 36.136719 20.054688 36.605469 19.660156 37.039062 C 18.453125 38.355469 16.765625 38.851562 16.042969 38.433594 C 15.261719 37.980469 15.652344 36.121094 17.050781 34.640625 C 18.558594 33.050781 20.726562 32.023438 20.726562 32.023438 L 20.722656 32.019531 C 20.785156 31.984375 20.847656 31.949219 20.914062 31.914062 Z M 20.914062 31.914062 "/>
</g>
</svg>
